<?xml version="1.0" encoding="UTF-8"?>
<svg version="1.1" xmlns="http://www.w3.org/2000/svg" width="186" height="144">
<path d="M0 0 C5.33428835 5.04149723 5.33428835 5.04149723 7 8 C6.86556221 10.68875588 6.27790374 11.71531813 4.3984375 13.640625 C3.73070313 14.17171875 3.06296875 14.7028125 2.375 15.25 C-1.28429328 18.29285319 -4.33652562 21.53461847 -7.359375 25.203125 C-9.08632224 27.0945434 -10.91012441 28.52800067 -13 30 C-15.62187494 28.95125002 -16.79371361 28.35068687 -18.25 25.875 C-18.4975 25.25625 -18.745 24.6375 -19 24 C-19.66 24 -20.32 24 -21 24 C-21 23.34 -21 22.68 -21 22 C-21.7425 21.71125 -22.485 21.4225 -23.25 21.125 C-26 20 -26 20 -27.8125 18.9375 C-34.11938904 16.23454755 -40.68564396 16.59767955 -47 19 C-53.29342051 22.49758237 -57.4824408 26.93807434 -59.58203125 33.94140625 C-61.08887307 41.36295428 -59.98686864 47.47183056 -55.78125 53.84765625 C-51.61162932 59.30290998 -46.52142538 62.32332409 -39.703125 63.34375 C-34.21365278 63.57090057 -29.9723246 62.26807789 -25 60 C-24.34 59.34 -23.68 58.68 -23 58 C-21.989375 57.154375 -20.97875 56.30875 -19.9375 55.4375 C-16.01419525 52.11587855 -12.47330992 48.46613737 -8.91796875 44.7578125 C-7 43 -7 43 -5 43 C-4.75233887 42.42564209 -4.50467773 41.85128418 -4.24951172 41.25952148 C-2.80691664 38.65084281 -1.1397178 36.92957634 0.9921875 34.84765625 C1.77980469 34.07099609 2.56742187 33.29433594 3.37890625 32.49414062 C4.20261719 31.69169922 5.02632813 30.88925781 5.875 30.0625 C7.4997235 28.472427 9.12219191 26.88004587 10.7421875 25.28515625 C11.82282471 24.23146851 11.82282471 24.23146851 12.92529297 23.15649414 C15.11394423 20.88156397 17.06435697 18.49191555 19 16 C18.71125 15.443125 18.4225 14.88625 18.125 14.3125 C16.9586747 11.91505355 15.9660119 9.48403061 15 7 C20.31373676 4.78594302 25.67894228 3.2203758 31.25 1.8125 C31.94738281 1.63364258 32.64476562 1.45478516 33.36328125 1.27050781 C36.71385884 0.44254716 39.52299602 0 43 0 C42.58384403 9.63401065 40.34560829 18.69393547 38 28 C36.68 28 35.36 28 34 28 C33.01 26.9790625 33.01 26.9790625 32 25.9375 C31.01 24.9784375 31.01 24.9784375 30 24 C26.3786156 24.30522179 24.62719713 26.00674756 22.13696289 28.52246094 C21.3926149 29.26703552 20.64826691 30.01161011 19.88136292 30.77874756 C19.08648972 31.58910461 18.29161652 32.39946167 17.47265625 33.234375 C16.23375893 34.47963959 16.23375893 34.47963959 14.96983337 35.75006104 C12.32693966 38.40975607 9.69463898 41.07966533 7.0625 43.75 C5.29300914 45.53454003 3.52283467 47.3184025 1.75195312 49.1015625 C-1.50548666 52.3835079 -4.75896183 55.66927214 -8.00756836 58.95996094 C-8.70315353 59.66349197 -9.39873871 60.36702301 -10.11540222 61.09187317 C-11.2652231 62.25604947 -12.41324482 63.42201083 -13.55805969 64.59111023 C-19.5370919 70.66235551 -26.48521299 74.21444713 -35.04907227 74.61621094 C-46.87537613 74.66628114 -54.36242767 71.41174802 -62.87109375 63.22265625 C-68.97017519 56.85499141 -72.03127095 49.32758694 -72.375 40.5 C-71.93062046 29.98301757 -67.38307084 20.81170595 -59.6875 13.6875 C-52.09539644 7.69373403 -43.88817823 5.53012427 -34.30859375 6.18359375 C-27.82721638 7.07789475 -22.88289934 9.37347104 -17.3125 12.7578125 C-14.9970277 14.23660609 -14.9970277 14.23660609 -12 14 C-9.81222534 12.0624994 -9.81222534 12.0624994 -8 10 C-9.77794393 4.6661682 -14.59593915 2.27638282 -19.2734375 -0.20703125 C-29.17460262 -4.51784622 -41.76185268 -4.83619185 -52 -1.375 C-53.69025284 -0.63502756 -55.358631 0.15713484 -57 1 C-57.88300781 1.44730469 -58.76601563 1.89460938 -59.67578125 2.35546875 C-70.32743175 8.24149192 -75.88456413 16.93556517 -79.8203125 28.38671875 C-82.83859013 40.22601905 -80.8567478 52.03847496 -75.1875 62.8125 C-68.33581785 72.7963797 -59.88491284 79.80928959 -48 83 C-44.53080102 83.42729238 -41.11748356 83.47711586 -37.625 83.4375 C-36.22846191 83.42614014 -36.22846191 83.42614014 -34.80371094 83.41455078 C-28.157557 83.25464156 -22.75898396 82.51451302 -17 79 C-15.85917969 78.36384766 -15.85917969 78.36384766 -14.6953125 77.71484375 C-4.72542463 71.68927179 0.41779021 63.57018859 5.2578125 53.265625 C7.51899461 49.02717602 10.28605387 46.00276496 14 43 C15.485 43.495 15.485 43.495 17 44 C16.49680804 57.23394854 12.11698593 65.67937922 4 76 C3.35933594 76.84949219 2.71867187 77.69898437 2.05859375 78.57421875 C-5.57757212 87.57243319 -17.4076854 93.27162779 -29 95 C-45.29209164 95.91885983 -59.99500783 93.1309197 -72.7578125 82.15893555 C-83.60227613 72.33114038 -91.46292561 60.79159117 -92.4453125 45.85546875 C-92.78983761 36.0047008 -92.30379385 27.03230419 -88 18 C-87.649375 17.21882813 -87.29875 16.43765625 -86.9375 15.6328125 C-80.36654259 2.44526603 -68.68287496 -6.77478887 -55.12109375 -11.9921875 C-35.18913578 -18.42828907 -15.76861195 -13.39961861 0 0 Z " fill="#317379" transform="translate(122,35)"/>
<path d="M0 0 C0 3.78847906 -1.19554351 5.08000073 -3.3125 8.1875 C-9.61395683 17.83700359 -12.06941341 27.47084446 -11 39 C-8.36666174 50.7204019 -3.5837139 61.5070653 6.39453125 68.734375 C14.99693462 74.07288646 22.22402281 76.55264432 32.375 76.4375 C33.77153809 76.42614014 33.77153809 76.42614014 35.19628906 76.41455078 C41.842443 76.25464156 47.24101604 75.51451302 53 72 C54.14082031 71.36384766 54.14082031 71.36384766 55.3046875 70.71484375 C65.27457537 64.68927179 70.41779021 56.57018859 75.2578125 46.265625 C77.51899461 42.02717602 80.28605387 39.00276496 84 36 C85.485 36.495 85.485 36.495 87 37 C86.49680804 50.23394854 82.11698593 58.67937922 74 69 C73.35933594 69.84949219 72.71867187 70.69898437 72.05859375 71.57421875 C64.42242788 80.57243319 52.5923146 86.27162779 41 88 C24.70790836 88.91885983 10.00499217 86.1309197 -2.7578125 75.15893555 C-13.60227613 65.33114038 -21.46292561 53.79159117 -22.4453125 38.85546875 C-22.93440716 24.87112371 -20.38090141 13.97883999 -13 2 C-11.68 2 -10.36 2 -9 2 C-7 4 -7 4 -7 7 C-6.34 7 -5.68 7 -5 7 C-4.731875 6.401875 -4.46375 5.80375 -4.1875 5.1875 C-3.01506533 3.02775192 -1.80630718 1.64209744 0 0 Z " fill="#14515D" transform="translate(52,42)"/>
<path d="M0 0 C3.56413079 3.7899767 3.56413079 3.7899767 4.72265625 5.84765625 C4.58821846 8.53641213 4.00055999 9.56297438 2.12109375 11.48828125 C1.45335938 12.019375 0.785625 12.55046875 0.09765625 13.09765625 C-3.56163703 16.14050944 -6.61386937 19.38227472 -9.63671875 23.05078125 C-11.36366599 24.94219965 -13.18746816 26.37565692 -15.27734375 27.84765625 C-17.89921869 26.79890627 -19.07105736 26.19834312 -20.52734375 23.72265625 C-20.77484375 23.10390625 -21.02234375 22.48515625 -21.27734375 21.84765625 C-21.93734375 21.84765625 -22.59734375 21.84765625 -23.27734375 21.84765625 C-23.27734375 21.18765625 -23.27734375 20.52765625 -23.27734375 19.84765625 C-24.39109375 19.41453125 -24.39109375 19.41453125 -25.52734375 18.97265625 C-28.27734375 17.84765625 -28.27734375 17.84765625 -30.08984375 16.78515625 C-36.65121969 13.97313799 -44.40232755 14.5680791 -51.27734375 15.84765625 C-52.96028295 16.82002112 -54.63177809 17.81330069 -56.27734375 18.84765625 C-59.58449551 18.71537018 -61.49700289 18.56992524 -63.95703125 16.29296875 C-64.61058594 15.57753906 -64.61058594 15.57753906 -65.27734375 14.84765625 C-57.75221783 7.58869234 -49.86167374 3.73624225 -39.27734375 3.84765625 C-31.70957436 4.36389016 -26.04492506 6.68363156 -19.58984375 10.60546875 C-17.27437145 12.08426234 -17.27437145 12.08426234 -14.27734375 11.84765625 C-12.08956909 9.91015565 -12.08956909 9.91015565 -10.27734375 7.84765625 C-12.05528768 2.51382445 -16.8732829 0.12403907 -21.55078125 -2.359375 C-31.45194637 -6.67018997 -44.03919643 -6.9885356 -54.27734375 -3.52734375 C-60.26616338 -0.93558255 -66.6323268 2.2026393 -71.27734375 6.84765625 C-71.93734375 6.84765625 -72.59734375 6.84765625 -73.27734375 6.84765625 C-74.26734375 8.08515625 -74.26734375 8.08515625 -75.27734375 9.34765625 C-76.26734375 10.58515625 -76.26734375 10.58515625 -77.27734375 11.84765625 C-77.93734375 11.84765625 -78.59734375 11.84765625 -79.27734375 11.84765625 C-81.7089498 8.4808171 -82.27734375 7.11415261 -82.27734375 2.84765625 C-75.58400772 -7.0468405 -61.69925445 -13.83257531 -50.27734375 -16.15234375 C-49.26220703 -16.38050781 -49.26220703 -16.38050781 -48.2265625 -16.61328125 C-30.32702497 -19.64710117 -12.82132406 -12.11758072 0 0 Z " fill="#5DCDBC" transform="translate(124.27734375,37.15234375)"/>
<path d="M0 0 C-0.41615597 9.63401065 -2.65439171 18.69393547 -5 28 C-6.32 28 -7.64 28 -9 28 C-9.66 27.319375 -10.32 26.63875 -11 25.9375 C-11.66 25.298125 -12.32 24.65875 -13 24 C-17.55484602 24.51967157 -19.92934289 27.61953703 -22.9375 30.78515625 C-24.09104831 31.96689208 -25.2446972 33.14852974 -26.3984375 34.33007812 C-28.20530353 36.19922442 -30.00872583 38.0715849 -31.80957031 39.9465332 C-33.55211654 41.75531517 -35.30660505 43.55184458 -37.0625 45.34765625 C-37.5980249 45.91323746 -38.1335498 46.47881866 -38.68530273 47.0615387 C-40.22265625 48.62915039 -40.22265625 48.62915039 -43 51 C-44.32 51 -45.64 51 -47 51 C-47.226875 51.556875 -47.45375 52.11375 -47.6875 52.6875 C-49.37550036 55.66159588 -51.46676517 57.72008865 -54 60 C-54.66 60 -55.32 60 -56 60 C-56.33 60.99 -56.66 61.98 -57 63 C-58.98 63 -60.96 63 -63 63 C-63.495 61.515 -63.495 61.515 -64 60 C-63.34 60 -62.68 60 -62 60 C-62 59.34 -62 58.68 -62 58 C-61.34 58 -60.68 58 -60 58 C-59.773125 57.484375 -59.54625 56.96875 -59.3125 56.4375 C-57.49996933 53.07137162 -55.25720975 50.07866266 -53 47 C-52.443125 46.195625 -51.88625 45.39125 -51.3125 44.5625 C-50.6628125 43.7890625 -50.6628125 43.7890625 -50 43 C-49.34 43 -48.68 43 -48 43 C-47.75233887 42.42564209 -47.50467773 41.85128418 -47.24951172 41.25952148 C-45.80691664 38.65084281 -44.1397178 36.92957634 -42.0078125 34.84765625 C-41.22019531 34.07099609 -40.43257812 33.29433594 -39.62109375 32.49414062 C-38.79738281 31.69169922 -37.97367188 30.88925781 -37.125 30.0625 C-35.5002765 28.472427 -33.87780809 26.88004587 -32.2578125 25.28515625 C-31.5373877 24.58269775 -30.81696289 23.88023926 -30.07470703 23.15649414 C-27.88605577 20.88156397 -25.93564303 18.49191555 -24 16 C-24.28875 15.443125 -24.5775 14.88625 -24.875 14.3125 C-26.0413253 11.91505355 -27.0339881 9.48403061 -28 7 C-22.68626324 4.78594302 -17.32105772 3.2203758 -11.75 1.8125 C-11.05261719 1.63364258 -10.35523438 1.45478516 -9.63671875 1.27050781 C-6.28614116 0.44254716 -3.47700398 0 0 0 Z " fill="#5BCDBB" transform="translate(165,35)"/>
<path d="M0 0 C3.56413079 3.7899767 3.56413079 3.7899767 4.72265625 5.84765625 C4.39453125 8.08203125 4.39453125 8.08203125 3.72265625 9.84765625 C2.40265625 10.17765625 1.08265625 10.50765625 -0.27734375 10.84765625 C0.71265625 9.36265625 0.71265625 9.36265625 1.72265625 7.84765625 C1.57413514 4.94258331 0.72881494 3.85461121 -1.2109375 1.6640625 C-8.94320803 -5.29618726 -16.55046023 -10.96079226 -27.27734375 -11.15234375 C-27.93734375 -10.49234375 -28.59734375 -9.83234375 -29.27734375 -9.15234375 C-28.61734375 -8.82234375 -27.95734375 -8.49234375 -27.27734375 -8.15234375 C-27.27734375 -7.49234375 -27.27734375 -6.83234375 -27.27734375 -6.15234375 C-26.69726562 -5.9821875 -26.1171875 -5.81203125 -25.51953125 -5.63671875 C-20.47377504 -4.07136864 -16.51779369 -2.30549884 -12.27734375 0.84765625 C-12.60734375 1.50765625 -12.93734375 2.16765625 -13.27734375 2.84765625 C-14.04046875 2.27015625 -14.80359375 1.69265625 -15.58984375 1.09765625 C-26.42098332 -5.90631391 -39.04270835 -7.12802296 -51.52734375 -4.45703125 C-58.50788712 -2.09713165 -66.03136646 1.60167896 -71.27734375 6.84765625 C-71.93734375 6.84765625 -72.59734375 6.84765625 -73.27734375 6.84765625 C-74.26734375 8.08515625 -74.26734375 8.08515625 -75.27734375 9.34765625 C-76.26734375 10.58515625 -76.26734375 10.58515625 -77.27734375 11.84765625 C-77.93734375 11.84765625 -78.59734375 11.84765625 -79.27734375 11.84765625 C-81.7089498 8.4808171 -82.27734375 7.11415261 -82.27734375 2.84765625 C-75.58400772 -7.0468405 -61.69925445 -13.83257531 -50.27734375 -16.15234375 C-49.26220703 -16.38050781 -49.26220703 -16.38050781 -48.2265625 -16.61328125 C-30.32702497 -19.64710117 -12.82132406 -12.11758072 0 0 Z " fill="#5ACCBC" transform="translate(124.27734375,37.15234375)"/>
<path d="M0 0 C0.99 0.33 1.98 0.66 3 1 C2.49680804 14.23394854 -1.88301407 22.67937922 -10 33 C-10.63292969 33.84433594 -11.26585937 34.68867187 -11.91796875 35.55859375 C-16.12485125 40.49161732 -22.35181639 46.07281087 -29 46.9375 C-29.99 46.958125 -30.98 46.97875 -32 47 C-33.485 47.495 -33.485 47.495 -35 48 C-37.33299825 48.03954234 -39.66708189 48.04401732 -42 48 C-42.66 46.35 -43.32 44.7 -44 43 C-48.29 42.67 -52.58 42.34 -57 42 C-57 41.67 -57 41.34 -57 41 C-55.96101563 40.97421875 -54.92203125 40.9484375 -53.8515625 40.921875 C-39.45613058 40.40497406 -28.13362287 36.63345716 -17.875 26 C-13.80000849 21.23911884 -11.38138245 15.88455619 -8.7421875 10.265625 C-6.48100539 6.02717602 -3.71394613 3.00276496 0 0 Z " fill="#348584" transform="translate(136,78)"/>
<path d="M0 0 C0 3.78847906 -1.19554351 5.08000073 -3.3125 8.1875 C-9.59061073 17.8012534 -12.1324616 27.50115914 -11 39 C-10.0739358 42.51748755 -8.9883533 45.91850126 -7.77734375 49.34765625 C-7 52 -7 52 -8 54 C-9.485 54.495 -9.485 54.495 -11 55 C-11 55.66 -11 56.32 -11 57 C-13.3125 56.4375 -13.3125 56.4375 -16 55 C-17.34776978 52.72037377 -18.11364216 50.51912228 -19 48 C-19.66 48 -20.32 48 -21 48 C-25.01273263 33.81508104 -22.10221382 18.40024091 -15.25 5.75 C-14.51050818 4.49375486 -13.76469603 3.24106405 -13 2 C-11.68 2 -10.36 2 -9 2 C-7 4 -7 4 -7 7 C-6.34 7 -5.68 7 -5 7 C-4.731875 6.401875 -4.46375 5.80375 -4.1875 5.1875 C-3.01506533 3.02775192 -1.80630718 1.64209744 0 0 Z " fill="#196169" transform="translate(52,42)"/>
<path d="M0 0 C0.6084375 0.20496094 1.216875 0.40992187 1.84375 0.62109375 C10.2109198 3.192768 18.3164086 3.68403494 27 4 C26.34 5.32 25.68 6.64 25 8 C27.45255002 9.22627501 28.61661961 8.96028596 31.3125 8.625 C32.11171875 8.52574219 32.9109375 8.42648438 33.734375 8.32421875 C36.17927987 7.97434443 38.59062232 7.54405303 41 7 C36.75221584 12.05964735 29.30577835 13.55729175 22.97216797 14.20849609 C15.12195563 14.64739685 7.58870804 14.1682023 0 12 C0 11.34 0 10.68 0 10 C-1.134375 9.62875 -2.26875 9.2575 -3.4375 8.875 C-5.375 8.06640625 -5.375 8.06640625 -7 7 C-7.9375 3.8125 -7.9375 3.8125 -8 1 C-5.69 1.33 -3.38 1.66 -1 2 C-0.67 1.34 -0.34 0.68 0 0 Z " fill="#1C5D67" transform="translate(68,116)"/>
<path d="M0 0 C0.54140625 0.22558594 1.0828125 0.45117188 1.640625 0.68359375 C0.980625 1.34359375 0.320625 2.00359375 -0.359375 2.68359375 C-0.359375 3.34359375 -0.359375 4.00359375 -0.359375 4.68359375 C1.4659375 4.71453125 1.4659375 4.71453125 3.328125 4.74609375 C4.01261719 4.75769531 4.69710937 4.76929688 5.40234375 4.78125 C7.68338902 4.74128872 7.68338902 4.74128872 10.04296875 4.1875 C17.07586634 2.82322363 24.62502505 3.40803012 31.640625 4.68359375 C31.640625 5.01359375 31.640625 5.34359375 31.640625 5.68359375 C30.32449219 5.709375 29.00835937 5.73515625 27.65234375 5.76171875 C13.30788754 6.16996094 -0.6454916 7.96971035 -11.359375 18.68359375 C-12.019375 18.68359375 -12.679375 18.68359375 -13.359375 18.68359375 C-14.349375 19.92109375 -14.349375 19.92109375 -15.359375 21.18359375 C-16.349375 22.42109375 -16.349375 22.42109375 -17.359375 23.68359375 C-18.019375 23.68359375 -18.679375 23.68359375 -19.359375 23.68359375 C-21.79098105 20.3167546 -22.359375 18.95009011 -22.359375 14.68359375 C-18.19421921 8.74212152 -7.63275052 -1.02359734 0 0 Z " fill="#4F9E97" transform="translate(64.359375,25.31640625)"/>
<path d="M0 0 C-5.445 -0.495 -5.445 -0.495 -11 -1 C-9.99083177 1.5748212 -9.99083177 1.5748212 -8 4 C-6.865625 4.12375 -5.73125 4.2475 -4.5625 4.375 C-1 5 -1 5 0.34375 6.60546875 C1.32159113 8.35510592 2.17059566 10.17531045 3 12 C0.2713379 10.95668802 -2.25412482 9.85881954 -4.8125 8.4375 C-11.858892 5.25971537 -19.50861342 5.60570408 -27 7 C-28.6829392 7.97236487 -30.35443434 8.96564444 -32 10 C-35.30715176 9.86771393 -37.21965914 9.72226899 -39.6796875 7.4453125 C-40.11539063 6.96835937 -40.55109375 6.49140625 -41 6 C-30.15739645 -4.45910311 -13.15303699 -9.86477774 0 0 Z " fill="#55B3A9" transform="translate(100,46)"/>
<path d="M0 0 C0.66 0.33 1.32 0.66 2 1 C-1.47727012 5.30519158 -5.07173117 9.00514689 -9.3359375 12.52734375 C-11.88189378 14.78045529 -13.87015674 17.35208675 -16 20 C-18.1875 22.375 -18.1875 22.375 -20 24 C-20.66 24 -21.32 24 -22 24 C-21.67 24.99 -21.34 25.98 -21 27 C-17.14564977 27.42078059 -15.52443046 27.40613788 -12.40234375 24.98828125 C-11.58894531 24.10527344 -10.77554688 23.22226563 -9.9375 22.3125 C-9.12152344 21.44238281 -8.30554688 20.57226562 -7.46484375 19.67578125 C-6.65144531 18.79277344 -5.83804688 17.90976563 -5 17 C-2.54023587 14.5095846 -0.05374835 12.05221024 2.45703125 9.61328125 C3.23433594 8.85402344 4.01164062 8.09476563 4.8125 7.3125 C5.60269531 6.54550781 6.39289063 5.77851562 7.20703125 4.98828125 C9.22322996 3.1986717 9.22322996 3.1986717 9 1 C11.82620599 0.48614437 13.49003606 0.65861918 15.890625 2.265625 C17.6998826 3.78069438 19.42174219 5.24435875 21 7 C21 7.66 21 8.32 21 9 C18.72707059 7.98110061 17.16975439 7.19097369 15.5 5.3125 C15.005 4.879375 14.51 4.44625 14 4 C9.44042059 4.62143473 7.09650389 7.5923373 4.0625 10.78515625 C2.90895169 11.96689208 1.7553028 13.14852974 0.6015625 14.33007812 C-1.20530353 16.19922442 -3.00872583 18.0715849 -4.80957031 19.9465332 C-6.55211654 21.75531517 -8.30660505 23.55184458 -10.0625 25.34765625 C-10.5980249 25.91323746 -11.1335498 26.47881866 -11.68530273 27.0615387 C-13.22265625 28.62915039 -13.22265625 28.62915039 -16 31 C-17.32 31 -18.64 31 -20 31 C-20.226875 31.556875 -20.45375 32.11375 -20.6875 32.6875 C-22.37550036 35.66159588 -24.46676517 37.72008865 -27 40 C-27.66 40 -28.32 40 -29 40 C-29.33 40.99 -29.66 41.98 -30 43 C-31.98 43 -33.96 43 -36 43 C-36.495 41.515 -36.495 41.515 -37 40 C-36.34 40 -35.68 40 -35 40 C-35 39.34 -35 38.68 -35 38 C-34.34 38 -33.68 38 -33 38 C-32.773125 37.484375 -32.54625 36.96875 -32.3125 36.4375 C-30.49996933 33.07137162 -28.25720975 30.07866266 -26 27 C-25.443125 26.195625 -24.88625 25.39125 -24.3125 24.5625 C-23.6628125 23.7890625 -23.6628125 23.7890625 -23 23 C-22.34 23 -21.68 23 -21 23 C-20.75975098 22.4337793 -20.51950195 21.86755859 -20.27197266 21.28417969 C-18.73804889 18.52959413 -16.89273982 16.66750329 -14.6484375 14.453125 C-13.79765625 13.60878906 -12.946875 12.76445313 -12.0703125 11.89453125 C-10.73613281 10.58548828 -10.73613281 10.58548828 -9.375 9.25 C-8.4778125 8.36183594 -7.580625 7.47367188 -6.65625 6.55859375 C-4.44192996 4.36783031 -2.22307565 2.18187237 0 0 Z " fill="#54A198" transform="translate(138,55)"/>
<path d="M0 0 C0.99 0.33 1.98 0.66 3 1 C2.70590493 8.73470033 1.27323474 14.98157575 -2 22 C-2.99 21.67 -3.98 21.34 -5 21 C-5.33 22.65 -5.66 24.3 -6 26 C-6.66 26 -7.32 26 -8 26 C-8.99 28.475 -8.99 28.475 -10 31 C-10.66 31 -11.32 31 -12 31 C-12 30.01 -12 29.02 -12 28 C-12.99 28.33 -13.98 28.66 -15 29 C-16 27 -16 27 -15.26171875 24.30859375 C-11.73844051 15.06953287 -7.82627137 6.32762366 0 0 Z " fill="#52A39C" transform="translate(136,78)"/>
<path d="M0 0 C0.66 0.33 1.32 0.66 2 1 C1.72758599 5.63103815 -0.26503707 7.6804884 -3.4296875 10.765625 C-5 12 -5 12 -8 13 C-8 14.32 -8 15.64 -8 17 C-7.34 17.33 -6.68 17.66 -6 18 C-5.67 17.34 -5.34 16.68 -5 16 C-3.68 16 -2.36 16 -1 16 C-0.67 15.01 -0.34 14.02 0 13 C1.31647119 12.30062468 2.65022151 11.63270867 4 11 C4.33 10.34 4.66 9.68 5 9 C5.99 9.33 6.98 9.66 8 10 C6.28133968 11.9684831 4.55115875 13.9243097 2.8125 15.875 C2.32974609 16.43058594 1.84699219 16.98617187 1.34960938 17.55859375 C-1.52249465 20.75838749 -3.74502322 22.77095735 -8 24 C-9.37562854 22.71034824 -10.70766393 21.37310707 -12 20 C-12 19.34 -12 18.68 -12 18 C-12.66 17.67 -13.32 17.34 -14 17 C-14 16.34 -14 15.68 -14 15 C-15.01760473 12.86124923 -15.01760473 12.86124923 -17 11 C-19.32873375 10.31744011 -21.66182791 9.64949225 -24 9 C-24.33 8.01 -24.66 7.02 -25 6 C-25.66 5.67 -26.32 5.34 -27 5 C-27.33 4.34 -27.66 3.68 -28 3 C-20.11559036 2.48579937 -12.52560567 4.43207603 -6 9 C-1.71929002 5.22406041 -1.71929002 5.22406041 0 0 Z " fill="#57C5B7" transform="translate(115,41)"/>
<path d="M0 0 C0.99 0.33 1.98 0.66 3 1 C2.39671875 1.42410156 1.7934375 1.84820312 1.171875 2.28515625 C-4.0358839 6.10697931 -7.24289518 9.15493778 -10 15 C-10.4125 15.804375 -10.825 16.60875 -11.25 17.4375 C-11.4975 17.953125 -11.745 18.46875 -12 19 C-12.33 18.67 -12.66 18.34 -13 18 C-13.66 18.99 -14.32 19.98 -15 21 C-15.45375 20.525625 -15.9075 20.05125 -16.375 19.5625 C-17.93258204 17.90972192 -17.93258204 17.90972192 -20 17 C-20.53194852 11.04217658 -19.86827567 7.47010083 -16.43359375 2.5078125 C-15 1 -15 1 -12.375 0.375 C-10 1 -10 1 -7 3 C-4.51064409 2.21069203 -2.330221 1.1651105 0 0 Z " fill="#3A898B" transform="translate(73,52)"/>
<path d="M0 0 C0 3.82027219 -1.26088494 5.22540002 -3.375 8.375 C-5.69644956 11.8428444 -7.58432935 15.06758153 -9 19 C-9.33 18.34 -9.66 17.68 -10 17 C-10.66 17.33 -11.32 17.66 -12 18 C-12.33 18.99 -12.66 19.98 -13 21 C-13.99 21 -14.98 21 -16 21 C-16.33 19.35 -16.66 17.7 -17 16 C-17.66 16 -18.32 16 -19 16 C-18.41892368 12.2397015 -17.34800504 9.46964968 -15.4375 6.1875 C-14.98246094 5.39730469 -14.52742188 4.60710938 -14.05859375 3.79296875 C-13.53458984 2.90544922 -13.53458984 2.90544922 -13 2 C-11.68 2 -10.36 2 -9 2 C-7 4 -7 4 -7 7 C-6.34 7 -5.68 7 -5 7 C-4.731875 6.401875 -4.46375 5.80375 -4.1875 5.1875 C-3.01506533 3.02775192 -1.80630718 1.64209744 0 0 Z " fill="#2B8285" transform="translate(52,42)"/>
<path d="M0 0 C12.640907 -0.99144369 24.08581454 4.48035406 33.76953125 12.2109375 C41.27914574 18.67844526 41.27914574 18.67844526 43 24 C42.01 24.99 41.02 25.98 40 27 C39.34 26.67 38.68 26.34 38 26 C38.66 25.34 39.32 24.68 40 24 C39.78813365 19.99148862 37.42319877 18.13757518 34.5625 15.5625 C27.55304973 9.49297602 20.43919419 5.16855704 11 5 C10.34 5.66 9.68 6.32 9 7 C9.66 7.33 10.32 7.66 11 8 C11 8.66 11 9.32 11 10 C11.58007812 10.17015625 12.16015625 10.3403125 12.7578125 10.515625 C17.80356871 12.08097511 21.75955006 13.84684491 26 17 C25.67 17.66 25.34 18.32 25 19 C24.236875 18.4225 23.47375 17.845 22.6875 17.25 C18.20751276 14.22735801 13.08954158 12.70255128 8 11 C8 10.67 8 10.34 8 10 C6.35 9.67 4.7 9.34 3 9 C3.66 7.68 4.32 6.36 5 5 C3.16666667 1.83333333 3.16666667 1.83333333 0 0 Z " fill="#66B8AA" transform="translate(86,21)"/>
<path d="M0 0 C0.99 0.33 1.98 0.66 3 1 C3.56412384 4.22356477 3.50150819 6.27323813 1.6171875 9.00390625 C-0.1942768 11.07023025 -2.0753735 13.03913576 -4 15 C-4.845625 15.99 -5.69125 16.98 -6.5625 18 C-9 20 -9 20 -12.1875 20.4375 C-15 20 -15 20 -17 18 C-15.38405168 15.95880212 -13.7143618 13.95927063 -12 12 C-11.34 12 -10.68 12 -10 12 C-9.34 10.68 -8.68 9.36 -8 8 C-7.34 8 -6.68 8 -6 8 C-5.7525 7.4225 -5.505 6.845 -5.25 6.25 C-3.83316683 3.6997003 -2.12372463 1.98214299 0 0 Z " fill="#49B3AA" transform="translate(132,63)"/>
<path d="M0 0 C2.10762603 2.10762603 2.84505738 3.65908025 4 6.375 C4.98860566 8.68432103 5.96718965 10.9383969 7.1484375 13.15625 C8.23831767 15.51599056 7.8044658 16.5866026 7 19 C7 19.66 7 20.32 7 21 C10.11505367 23.84804907 13.01328937 25.63312778 17 27 C17 27.33 17 27.66 17 28 C8.80094064 27.65837253 3.87784922 23.21833805 -1.5625 17.375 C-3.06640625 15.7109375 -3.06640625 15.7109375 -4 14 C-3.66473603 10.95321518 -2.75119201 9.62678801 -1 7 C-0.60612212 4.67612053 -0.26513915 2.34206251 0 0 Z " fill="#1D626C" transform="translate(59,79)"/>
<path d="M0 0 C1.30774189 2.51488825 2.3653194 4.96311477 3.375 7.625 C4.66752035 11.05021474 4.66752035 11.05021474 7.1875 12.4375 C7.785625 12.623125 8.38375 12.80875 9 13 C9 12.34 9 11.68 9 11 C9.66 11 10.32 11 11 11 C11.33 10.34 11.66 9.68 12 9 C12.33 10.32 12.66 11.64 13 13 C11.68 13.99 10.36 14.98 9 16 C9.76167457 17.46313772 10.53470707 18.92036661 11.3125 20.375 C11.74175781 21.18710938 12.17101563 21.99921875 12.61328125 22.8359375 C13.96778724 25.26834043 13.96778724 25.26834043 17 27 C17 27.66 17 28.32 17 29 C17.73605469 29.26941406 18.47210938 29.53882812 19.23046875 29.81640625 C21.89842073 30.95658883 23.96430608 32.25040638 26.3125 33.9375 C30.412296 36.75095061 34.28419456 38.45664549 39 40 C39 40.33 39 40.66 39 41 C27.30626052 40.56689854 18.92667096 33.03657281 11 25 C5.74500744 19.10106962 -0.29595798 11.06329926 -0.3125 2.875 C-0.209375 1.92625 -0.10625 0.9775 0 0 Z " fill="#1C3B48" transform="translate(32,86)"/>
<path d="M0 0 C0.125 2.6875 0.125 2.6875 -1 6 C-7.33854625 10.27851872 -13.40568098 12.14328904 -21 12 C-21.66 10.35 -22.32 8.7 -23 7 C-22.2265625 6.74605469 -21.453125 6.49210937 -20.65625 6.23046875 C-13.50190407 3.86641069 -13.50190407 3.86641069 -6.4375 1.25 C-3 0 -3 0 0 0 Z " fill="#298589" transform="translate(115,114)"/>
<path d="M0 0 C0.66 0.33 1.32 0.66 2 1 C0.71580959 2.67243402 -0.57757185 4.33781447 -1.875 6 C-2.59429687 6.928125 -3.31359375 7.85625 -4.0546875 8.8125 C-4.69664063 9.534375 -5.33859375 10.25625 -6 11 C-6.66 11 -7.32 11 -8 11 C-8 11.66 -8 12.32 -8 13 C-8.66 13 -9.32 13 -10 13 C-9.67 13.66 -9.34 14.32 -9 15 C-8.01 15.33 -7.02 15.66 -6 16 C-5.67 15.01 -5.34 14.02 -5 13 C-4.67 14.32 -4.34 15.64 -4 17 C-8.15984612 20.89985574 -11.55084591 21.89169747 -17 23 C-17.66 21.68 -18.32 20.36 -19 19 C-18.67 18.67 -18.34 18.34 -18 18 C-19.32 17.34 -20.64 16.68 -22 16 C-21.16855469 15.70996094 -21.16855469 15.70996094 -20.3203125 15.4140625 C-19.59585938 15.15367188 -18.87140625 14.89328125 -18.125 14.625 C-17.40570313 14.36976562 -16.68640625 14.11453125 -15.9453125 13.8515625 C-13.81842006 13.06122217 -13.81842006 13.06122217 -12 11 C-10.90121049 10.05620347 -9.79641334 9.11938061 -8.6875 8.1875 C-5.63497947 5.58838733 -2.79146731 2.87605723 0 0 Z " fill="#488685" transform="translate(111,82)"/>
<path d="M0 0 C0.79921875 0.01804688 1.5984375 0.03609375 2.421875 0.0546875 C3.02515625 0.07789063 3.6284375 0.10109375 4.25 0.125 C3.26 0.62 3.26 0.62 2.25 1.125 C2.58 2.445 2.91 3.765 3.25 5.125 C2.610625 5.228125 1.97125 5.33125 1.3125 5.4375 C0.631875 5.664375 -0.04875 5.89125 -0.75 6.125 C-1.08 7.115 -1.41 8.105 -1.75 9.125 C-4.64795985 11.44336788 -6.13239507 12.1497042 -9.875 12 C-12.83711004 11.09848825 -13.72974736 10.33651916 -15.75 8.125 C-14.67130607 7.16144756 -13.58681257 6.20438583 -12.5 5.25 C-11.59507813 4.44949219 -11.59507813 4.44949219 -10.671875 3.6328125 C-7.10285392 0.83272686 -4.54832164 -0.13377417 0 0 Z " fill="#45A9A3" transform="translate(74.75,43.875)"/>
<path d="M0 0 C1.86785156 0.15275391 1.86785156 0.15275391 3.7734375 0.30859375 C5.18496094 0.43427734 5.18496094 0.43427734 6.625 0.5625 C7.7421875 4.34375 7.7421875 4.34375 6.6875 6.3125 C3.32294036 8.35162706 0.51645769 7.87134585 -3.375 7.5625 C-4.035 6.9025 -4.695 6.2425 -5.375 5.5625 C-6.365 5.5625 -7.355 5.5625 -8.375 5.5625 C-11.0625 4.1875 -11.0625 4.1875 -13.375 2.5625 C-13.375 1.9025 -13.375 1.2425 -13.375 0.5625 C-8.75534912 -0.39696595 -4.69370875 -0.39852244 0 0 Z " fill="#20797F" transform="translate(83.375,99.4375)"/>
<path d="M0 0 C-0.45406625 7.95398808 -1.87111461 15.32797907 -4 23 C-4.66 23 -5.32 23 -6 23 C-5.7834375 21.80761719 -5.566875 20.61523438 -5.34375 19.38671875 C-5.06236404 17.82033692 -4.78112151 16.25392932 -4.5 14.6875 C-4.35691406 13.90181641 -4.21382812 13.11613281 -4.06640625 12.30664062 C-3.93105469 11.54931641 -3.79570312 10.79199219 -3.65625 10.01171875 C-3.46772461 8.96697388 -3.46772461 8.96697388 -3.27539062 7.90112305 C-2.92831974 5.82532567 -2.92831974 5.82532567 -3 3 C-9.6 4.32 -16.2 5.64 -23 7 C-22.67 8.98 -22.34 10.96 -22 13 C-23.875 12.8125 -23.875 12.8125 -26 12 C-27.25 9.4375 -27.25 9.4375 -28 7 C-22.68626324 4.78594302 -17.32105772 3.2203758 -11.75 1.8125 C-11.05261719 1.63364258 -10.35523438 1.45478516 -9.63671875 1.27050781 C-6.28614116 0.44254716 -3.47700398 0 0 0 Z " fill="#6FB1A4" transform="translate(165,35)"/>
<path d="M0 0 C0.66 0 1.32 0 2 0 C0.6736501 4.91186721 -1.3339171 8.01973146 -4.625 11.875 C-5.44226563 12.84179688 -6.25953125 13.80859375 -7.1015625 14.8046875 C-8.04128906 15.89136719 -8.04128906 15.89136719 -9 17 C-15.58924205 14.72371638 -15.58924205 14.72371638 -17.3125 11.6875 C-16.82959305 7.53450024 -14.09118933 5.607351 -11 3 C-10.34 3.33 -9.68 3.66 -9 4 C-9 4.99 -9 5.98 -9 7 C-8.34 7 -7.68 7 -7 7 C-7 7.99 -7 8.98 -7 10 C-6.34 10 -5.68 10 -5 10 C-4.34 8.35 -3.68 6.7 -3 5 C-2.34 5 -1.68 5 -1 5 C-0.67 3.35 -0.34 1.7 0 0 Z " fill="#489A92" transform="translate(131,99)"/>
<path d="M0 0 C0 0.33 0 0.66 0 1 C-4.455 1.495 -4.455 1.495 -9 2 C-9 3.65 -9 5.3 -9 7 C-8.01 7.33 -7.02 7.66 -6 8 C-10.1450691 9.57907394 -13.5551448 10.4938728 -18 10 C-19.9375 8.75 -19.9375 8.75 -21 7 C-20.84375 5 -20.84375 5 -20 3 C-13.86942035 -0.31918252 -6.79367615 -0.39027501 0 0 Z " fill="#58B8AD" transform="translate(84,21)"/>
<path d="M0 0 C0.54140625 0.22558594 1.0828125 0.45117188 1.640625 0.68359375 C0.97675781 0.998125 0.31289062 1.31265625 -0.37109375 1.63671875 C-9.62343509 6.10651699 -9.62343509 6.10651699 -16.359375 13.68359375 C-16.359375 14.67359375 -16.359375 15.66359375 -16.359375 16.68359375 C-16.359375 17.01359375 -16.359375 17.34359375 -16.359375 17.68359375 C-15.369375 18.01359375 -14.379375 18.34359375 -13.359375 18.68359375 C-14.63999985 20.39109355 -15.97705057 22.05732971 -17.359375 23.68359375 C-18.019375 23.68359375 -18.679375 23.68359375 -19.359375 23.68359375 C-21.79098105 20.3167546 -22.359375 18.95009011 -22.359375 14.68359375 C-18.19421921 8.74212152 -7.63275052 -1.02359734 0 0 Z " fill="#328F8D" transform="translate(64.359375,25.31640625)"/>
<path d="M0 0 C1.21236328 0.02707031 1.21236328 0.02707031 2.44921875 0.0546875 C3.37154297 0.08949219 3.37154297 0.08949219 4.3125 0.125 C3.9825 1.115 3.6525 2.105 3.3125 3.125 C3.9725 3.785 4.6325 4.445 5.3125 5.125 C4.9825 5.455 4.6525 5.785 4.3125 6.125 C6.2925 6.785 8.2725 7.445 10.3125 8.125 C10.3125 8.455 10.3125 8.785 10.3125 9.125 C8.02202777 9.48681089 5.73007055 9.83923224 3.4375 10.1875 C1.52324219 10.48333984 1.52324219 10.48333984 -0.4296875 10.78515625 C-3.6875 11.125 -3.6875 11.125 -5.6875 10.125 C-5.6875 9.465 -5.6875 8.805 -5.6875 8.125 C-4.6975 7.465 -3.7075 6.805 -2.6875 6.125 C-2.6875 5.135 -2.6875 4.145 -2.6875 3.125 C-4.3375 2.795 -5.9875 2.465 -7.6875 2.125 C-4.48369983 -0.01086678 -3.66810033 -0.10632175 0 0 Z " fill="#4EACA3" transform="translate(79.6875,41.875)"/>
<path d="M0 0 C1.125 3.75 1.125 3.75 0 6 C2.475 6.99 2.475 6.99 5 8 C5 11.63 5 15.26 5 19 C4.01 19 3.02 19 2 19 C0 17 0 17 -0.125 13.375 C-0.08375 12.26125 -0.0425 11.1475 0 10 C-0.66 10 -1.32 10 -2 10 C-2 12.31 -2 14.62 -2 17 C-2.33 17 -2.66 17 -3 17 C-3.23534715 11.23399495 -2.93384486 6.46026785 -1 1 C-0.67 0.67 -0.34 0.34 0 0 Z " fill="#2A7A80" transform="translate(53,63)"/>
<path d="M0 0 C0.66 0.33 1.32 0.66 2 1 C2.40368295 7.45892714 1.5915262 12.06108578 -1 18 C-1.33 18 -1.66 18 -2 18 C-2 16.35 -2 14.7 -2 13 C-3.32 13.33 -4.64 13.66 -6 14 C-6.9375 10.9375 -6.9375 10.9375 -7 7 C-4.99011765 4.27455744 -2.61122143 2.14237369 0 0 Z " fill="#66C2B6" transform="translate(136,80)"/>
<path d="M0 0 C0.99 0.33 1.98 0.66 3 1 C3.25 6.625 3.25 6.625 1 10 C-4.27102804 12.24299065 -4.27102804 12.24299065 -8 11 C-8 10.01 -8 9.02 -8 8 C-7.34 8 -6.68 8 -6 8 C-5.7525 7.4225 -5.505 6.845 -5.25 6.25 C-3.83316683 3.6997003 -2.12372463 1.98214299 0 0 Z " fill="#51C5B4" transform="translate(132,63)"/>
<path d="M0 0 C0.99 0.33 1.98 0.66 3 1 C3 1.66 3 2.32 3 3 C5.97 3.495 5.97 3.495 9 4 C5.31265242 6.45823172 2.30300029 7.01242616 -2 8 C-2 8.66 -2 9.32 -2 10 C-3.65 9.67 -5.3 9.34 -7 9 C-7 6 -7 6 -5.57421875 4.359375 C-4.95160156 3.82828125 -4.32898437 3.2971875 -3.6875 2.75 C-3.07261719 2.20859375 -2.45773438 1.6671875 -1.82421875 1.109375 C-1.22222656 0.74328125 -0.62023438 0.3771875 0 0 Z " fill="#47B0A8" transform="translate(61,27)"/>
<path d="M0 0 C0.5775 0.639375 1.155 1.27875 1.75 1.9375 C3.98062401 3.98223868 5.07436391 4.58205199 8 5 C9.125 11.75 9.125 11.75 8 14 C5.6875 13.4375 5.6875 13.4375 3 12 C0.77214133 7.92839622 -0.42291117 4.65202284 0 0 Z " fill="#195C67" transform="translate(33,85)"/>
<path d="M0 0 C1.30774189 2.51488825 2.3653194 4.96311477 3.375 7.625 C4.66752035 11.05021474 4.66752035 11.05021474 7.1875 12.4375 C7.785625 12.623125 8.38375 12.80875 9 13 C9 12.34 9 11.68 9 11 C9.66 11 10.32 11 11 11 C11.33 10.34 11.66 9.68 12 9 C12.33 10.32 12.66 11.64 13 13 C11.68 13.99 10.36 14.98 9 16 C9.66 17.65 10.32 19.3 11 21 C8.5 18.6875 8.5 18.6875 6 16 C6 15.01 6 14.02 6 13 C5.01 13.33 4.02 13.66 3 14 C0.56574762 9.03006806 -0.34615998 5.65394631 0 0 Z " fill="#144854" transform="translate(32,86)"/>
<path d="M0 0 C0.99 0.33 1.98 0.66 3 1 C2.38511719 1.44730469 1.77023438 1.89460938 1.13671875 2.35546875 C-3.23164501 5.62303271 -6.31317888 8.19200432 -9 13 C-11.1875 13.8125 -11.1875 13.8125 -13 14 C-13 12.02 -13 10.04 -13 8 C-12.43410156 7.73574219 -11.86820313 7.47148438 -11.28515625 7.19921875 C-8.01558247 5.48339114 -5.11366548 3.29938476 -2.12109375 1.14453125 C-1.07115234 0.57798828 -1.07115234 0.57798828 0 0 Z " fill="#478584" transform="translate(73,52)"/>
<path d="M0 0 C0.66 1.32 1.32 2.64 2 4 C-2.15984612 7.89985574 -5.55084591 8.89169747 -11 10 C-11.66 8.68 -12.32 7.36 -13 6 C-3.44262295 1.85245902 -3.44262295 1.85245902 0 3 C0 2.01 0 1.02 0 0 Z " fill="#2F8F8F" transform="translate(105,95)"/>
<path d="M0 0 C2.22825644 2.22825644 2.69239369 3.65761628 3.625 6.625 C3.88539062 7.44226563 4.14578125 8.25953125 4.4140625 9.1015625 C4.60742188 9.72804688 4.80078125 10.35453125 5 11 C2.525 10.01 2.525 10.01 0 9 C-0.79356801 10.74671588 -0.79356801 10.74671588 -1 13 C0.8167672 16.72915372 3.36138548 19.81546523 6 23 C2.91306296 21.64147869 0.91358266 20.15489047 -1.3125 17.625 C-1.84488281 17.03976563 -2.37726562 16.45453125 -2.92578125 15.8515625 C-4 14 -4 14 -3.79296875 11.9609375 C-3 10 -3 10 -1 7 C-0.60612212 4.67612053 -0.26513915 2.34206251 0 0 Z " fill="#1C565D" transform="translate(59,79)"/>
<path d="M0 0 C0 0.66 0 1.32 0 2 C2.45255002 3.22627501 3.61661961 2.96028596 6.3125 2.625 C7.11171875 2.52574219 7.9109375 2.42648438 8.734375 2.32421875 C11.17927987 1.97434443 13.59062232 1.54405303 16 1 C13.85073619 3.39105598 12.00963087 4.63278854 9 5.75 C8.319375 6.01296875 7.63875 6.2759375 6.9375 6.546875 C3.28523602 7.40103351 0.40572779 5.18584614 -2.6875 3.4375 C-3.49574219 2.98246094 -4.30398437 2.52742188 -5.13671875 2.05859375 C-6.05904297 1.53458984 -6.05904297 1.53458984 -7 1 C-7 0.67 -7 0.34 -7 0 C-2.25 -1.125 -2.25 -1.125 0 0 Z " fill="#286E72" transform="translate(93,122)"/>
<path d="M0 0 C1.01889024 3.05667071 0.98614898 4.71177266 0.8125 7.875 C0.71703708 13.83347697 2.25137724 18.76568438 4.22265625 24.34765625 C5 27 5 27 4 29 C3.34 29.33 2.68 29.66 2 30 C-0.81112126 23.65278411 -1.41210687 18.52467363 -1.25 11.625 C-1.24484375 10.72394531 -1.2396875 9.82289062 -1.234375 8.89453125 C-1.15540995 2.31081989 -1.15540995 2.31081989 0 0 Z " fill="#40676E" transform="translate(40,67)"/>
<path d="M0 0 C0.66 0 1.32 0 2 0 C2.185625 1.5778125 2.185625 1.5778125 2.375 3.1875 C2.80968361 6.86370737 2.80968361 6.86370737 4.125 9.5 C5.31629193 12.90369123 4.68364438 15.51341365 4 19 C0.95267383 15.95267383 0.07343984 13.17063107 -0.1953125 8.88671875 C-0.17210937 7.83097656 -0.14890625 6.77523437 -0.125 5.6875 C-0.10695312 4.61886719 -0.08890625 3.55023438 -0.0703125 2.44921875 C-0.04710937 1.64097656 -0.02390625 0.83273438 0 0 Z " fill="#2A646A" transform="translate(51,73)"/>
<path d="M0 0 C3 1 3 1 5 3 C6.31747324 3.69748583 7.64914193 4.36959957 9 5 C6.06978621 7.15456896 4.56503279 8.02260131 0.875 7.875 C-2.00085972 6.99973834 -3.1767036 6.32976763 -5 4 C-2.6875 1.9375 -2.6875 1.9375 0 0 Z " fill="#489F9C" transform="translate(64,48)"/>
<path d="M0 0 C0.66 0.33 1.32 0.66 2 1 C-2.3517125 5.74097118 -6.71702033 7.72593112 -13 9 C-18.3589042 9.19053321 -23.68288683 8.61376965 -29 8 C-29 7.67 -29 7.34 -29 7 C-27.96101563 6.97421875 -26.92203125 6.9484375 -25.8515625 6.921875 C-16.16833837 6.56977889 -8.25563055 5.5037537 0 0 Z " fill="#4D8687" transform="translate(108,112)"/>
<path d="M0 0 C0.99 0.33 1.98 0.66 3 1 C1.28133968 2.9684831 -0.44884125 4.9243097 -2.1875 6.875 C-2.67025391 7.43058594 -3.15300781 7.98617187 -3.65039062 8.55859375 C-6.52249465 11.75838749 -8.74502322 13.77095735 -13 15 C-13.99 14.01 -14.98 13.02 -16 12 C-15.67 11.34 -15.34 10.68 -15 10 C-13.68 10.66 -12.36 11.32 -11 12 C-10.67 11.34 -10.34 10.68 -10 10 C-9.01 10 -8.02 10 -7 10 C-6.7525 9.05125 -6.505 8.1025 -6.25 7.125 C-5 4 -5 4 -2.9375 2.75 C-2.298125 2.5025 -1.65875 2.255 -1 2 C-0.67 1.34 -0.34 0.68 0 0 Z " fill="#6CAB9F" transform="translate(120,50)"/>
<path d="M0 0 C2.125 0.9375 2.125 0.9375 4 2 C3.67 2.99 3.34 3.98 3 5 C2.34 5 1.68 5 1 5 C0.67 5.99 0.34 6.98 0 8 C-1.98 8 -3.96 8 -6 8 C-6.33 7.01 -6.66 6.02 -7 5 C-6.34 5 -5.68 5 -5 5 C-5 4.34 -5 3.68 -5 3 C-4.34 3 -3.68 3 -3 3 C-2.67 2.34 -2.34 1.68 -2 1 C-1.34 0.67 -0.68 0.34 0 0 Z " fill="#369A98" transform="translate(108,90)"/>
<path d="M0 0 C0.54140625 0.22558594 1.0828125 0.45117188 1.640625 0.68359375 C0.74923828 1.06837891 0.74923828 1.06837891 -0.16015625 1.4609375 C-6.62352335 4.44634967 -11.67760588 8.1858607 -17.01171875 12.890625 C-19.359375 14.68359375 -19.359375 14.68359375 -22.359375 14.68359375 C-17.36396908 9.02703116 -8.20697712 -1.10060455 0 0 Z " fill="#4B948E" transform="translate(64.359375,25.31640625)"/>
<path d="M0 0 C1.86785156 0.15275391 1.86785156 0.15275391 3.7734375 0.30859375 C5.18496094 0.43427734 5.18496094 0.43427734 6.625 0.5625 C6.625 0.8925 6.625 1.2225 6.625 1.5625 C2.335 1.5625 -1.955 1.5625 -6.375 1.5625 C-6.705 2.8825 -7.035 4.2025 -7.375 5.5625 C-9.8125 4.75 -9.8125 4.75 -12.375 3.5625 C-12.705 2.5725 -13.035 1.5825 -13.375 0.5625 C-8.75534912 -0.39696595 -4.69370875 -0.39852244 0 0 Z " fill="#17666D" transform="translate(83.375,99.4375)"/>
<path d="M0 0 C0.66 0.33 1.32 0.66 2 1 C1.68232368 6.40049736 -1.19996327 8.52337065 -5 12 C-9.43458973 10.6062718 -11.87378374 8.39417765 -15 5 C-11.9168649 6.19899698 -8.93720508 7.47700477 -6 9 C-1.71929002 5.22406041 -1.71929002 5.22406041 0 0 Z " fill="#60AEA2" transform="translate(115,41)"/>
<path d="M0 0 C1.32 0 2.64 0 4 0 C4 0.99 4 1.98 4 3 C5.32 3.33 6.64 3.66 8 4 C8.33 3.34 8.66 2.68 9 2 C9.99 2.33 10.98 2.66 12 3 C12 3.66 12 4.32 12 5 C11.01 5 10.02 5 9 5 C8.67 5.99 8.34 6.98 8 8 C6.02 7.34 4.04 6.68 2 6 C2 5.34 2 4.68 2 4 C1.34 3.67 0.68 3.34 0 3 C0 2.01 0 1.02 0 0 Z " fill="#62C2B4" transform="translate(101,55)"/>
<path d="M0 0 C2.01708655 2.23703481 2.81620722 4.16919117 4 7 C1.25956777 5.95218768 -1.2929507 4.84078766 -3.875 3.4375 C-7.29312731 1.86516144 -10.27341329 1.37265867 -14 1 C-14 0.67 -14 0.34 -14 0 C-9.39633014 -1.33654931 -4.5585504 -1.57338027 0 0 Z " fill="#69AFA7" transform="translate(99,51)"/>
<path d="M0 0 C0.33 0.66 0.66 1.32 1 2 C0.67 2.66 0.34 3.32 0 4 C-0.66 4 -1.32 4 -2 4 C-2.66 5.65 -3.32 7.3 -4 9 C-4.66 9 -5.32 9 -6 9 C-6 8.01 -6 7.02 -6 6 C-6.99 6.33 -7.98 6.66 -9 7 C-9.33 6.34 -9.66 5.68 -10 5 C-8.3125 3 -8.3125 3 -6 1 C-3.3125 0.8125 -3.3125 0.8125 -1 1 C-0.67 0.67 -0.34 0.34 0 0 Z " fill="#42A9A4" transform="translate(130,100)"/>
<path d="M0 0 C0.33 0.66 0.66 1.32 1 2 C1.763125 2 2.52625 2 3.3125 2 C5.20833333 2 7.10416667 2 9 2 C5.535 4.97 5.535 4.97 2 8 C0.68 7.01 -0.64 6.02 -2 5 C-1.34 3.35 -0.68 1.7 0 0 Z " fill="#51B9AD" transform="translate(123,72)"/>
<path d="M0 0 C0.78375 0.04125 1.5675 0.0825 2.375 0.125 C2.375 1.115 2.375 2.105 2.375 3.125 C1.385 3.455 0.395 3.785 -0.625 4.125 C-0.625 4.785 -0.625 5.445 -0.625 6.125 C-3.265 6.455 -5.905 6.785 -8.625 7.125 C-7.635 6.795 -6.645 6.465 -5.625 6.125 C-5.03429986 4.17896726 -5.03429986 4.17896726 -4.625 2.125 C-2.625 0.125 -2.625 0.125 0 0 Z " fill="#3DA6A1" transform="translate(118.625,81.875)"/>
<path d="M0 0 C0.433125 0.495 0.86625 0.99 1.3125 1.5 C2.99740483 3.33218192 2.99740483 3.33218192 6 3 C5.67 4.32 5.34 5.64 5 7 C3.34385343 7.38218767 1.67542976 7.71395102 0 8 C-0.33 7.67 -0.66 7.34 -1 7 C-0.71269945 4.66055264 -0.38063221 2.3260857 0 0 Z " fill="#46B6AD" transform="translate(128,90)"/>
<path d="M0 0 C1.66666667 0 3.33333333 0 5 0 C4.67 2.31 4.34 4.62 4 7 C2.68 7.33 1.36 7.66 0 8 C-0.38063221 5.6739143 -0.71269945 3.33944736 -1 1 C-0.67 0.67 -0.34 0.34 0 0 Z " fill="#53BEB4" transform="translate(130,86)"/>
<path d="M0 0 C0.99 0.33 1.98 0.66 3 1 C2.42415568 3.38564077 1.77772405 5.66682784 1 8 C-0.98 8.33 -2.96 8.66 -5 9 C-3.46395304 5.85808576 -1.94268841 2.91403262 0 0 Z " fill="#329D9A" transform="translate(50,35)"/>
<path d="M0 0 C0.33 0 0.66 0 1 0 C0.99476318 0.68626465 0.98952637 1.3725293 0.98413086 2.07958984 C0.96339044 5.17805064 0.95034924 8.27649686 0.9375 11.375 C0.92912109 12.45523438 0.92074219 13.53546875 0.91210938 14.6484375 C0.90888672 15.6796875 0.90566406 16.7109375 0.90234375 17.7734375 C0.89710693 18.72653809 0.89187012 19.67963867 0.88647461 20.66162109 C0.84357401 23.02324406 0.84357401 23.02324406 2 25 C1.0625 27.125 1.0625 27.125 0 29 C-0.87359586 25.98448936 -1.12856919 23.29144706 -1.1328125 20.15625 C-1.13410156 19.23972656 -1.13539062 18.32320312 -1.13671875 17.37890625 C-1.13285156 16.42886719 -1.12898438 15.47882813 -1.125 14.5 C-1.12886719 13.54996094 -1.13273437 12.59992188 -1.13671875 11.62109375 C-1.13542969 10.70457031 -1.13414063 9.78804687 -1.1328125 8.84375 C-1.13168457 8.01037109 -1.13055664 7.17699219 -1.12939453 6.31835938 C-1.00464558 4.08323482 -0.62140725 2.14499663 0 0 Z " fill="#54757E" transform="translate(31,61)"/>
<path d="M0 0 C0.33 0.99 0.66 1.98 1 3 C1.66 3.33 2.32 3.66 3 4 C3.33 4.99 3.66 5.98 4 7 C3.01 8.485 3.01 8.485 2 10 C1.54625 9.525625 1.0925 9.05125 0.625 8.5625 C-0.93258204 6.90972192 -0.93258204 6.90972192 -3 6 C-1.125 1.125 -1.125 1.125 0 0 Z " fill="#2C888B" transform="translate(56,63)"/>
<path d="M0 0 C0.99 0.33 1.98 0.66 3 1 C2.67 1.66 2.34 2.32 2 3 C1.34 3 0.68 3 0 3 C-0.268125 3.70125 -0.53625 4.4025 -0.8125 5.125 C-2.0681449 8.1649824 -3.50235123 11.0727774 -5 14 C-5.9970971 11.37511186 -6.13116719 10.31725398 -5.0390625 7.67578125 C-4.57242188 6.89589844 -4.10578125 6.11601563 -3.625 5.3125 C-3.16351563 4.52488281 -2.70203125 3.73726562 -2.2265625 2.92578125 C-1 1 -1 1 0 0 Z " fill="#2F706F" transform="translate(40,43)"/>
<path d="M0 0 C0.66 0.33 1.32 0.66 2 1 C1.25 3.9375 1.25 3.9375 0 7 C-2 8 -2 8 -4 8 C-4.66 7.34 -5.32 6.68 -6 6 C-4.02 4.02 -2.04 2.04 0 0 Z " fill="#4A918E" transform="translate(120,102)"/>
<path d="M0 0 C0.66 0 1.32 0 2 0 C2.66 2.64 3.32 5.28 4 8 C2.02 8.99 2.02 8.99 0 10 C-0.99 8.68 -1.98 7.36 -3 6 C-2.505 5.566875 -2.01 5.13375 -1.5 4.6875 C0.33218192 3.00259517 0.33218192 3.00259517 0 0 Z " fill="#75C5BB" transform="translate(141,48)"/>
<path d="M0 0 C2.97 1.65 5.94 3.3 9 5 C9 5.33 9 5.66 9 6 C2.6 6.36923077 2.6 6.36923077 -0.4375 4.5 C-0.953125 4.005 -1.46875 3.51 -2 3 C-1.34 3 -0.68 3 0 3 C0 2.01 0 1.02 0 0 Z " fill="#2F5960" transform="translate(57,110)"/>
<path d="M0 0 C0 3.84947814 -1.31151243 5.46593267 -3.375 8.6875 C-4.00148438 9.68136719 -4.62796875 10.67523438 -5.2734375 11.69921875 C-6.12808594 12.83810547 -6.12808594 12.83810547 -7 14 C-7.66 14 -8.32 14 -9 14 C-7.09663714 8.60713857 -4.27697133 3.84927419 0 0 Z " fill="#2F6D6D" transform="translate(52,42)"/>
<path d="M0 0 C2.64 0 5.28 0 8 0 C8 0.66 8 1.32 8 2 C7.01 2 6.02 2 5 2 C5 2.66 5 3.32 5 4 C6.32 4.33 7.64 4.66 9 5 C6.69 5 4.38 5 2 5 C1.34 3.35 0.68 1.7 0 0 Z " fill="#227B81" transform="translate(92,121)"/>
<path d="M0 0 C-0.33 1.32 -0.66 2.64 -1 4 C-3.375 4.1875 -3.375 4.1875 -6 4 C-6.66 3.01 -7.32 2.02 -8 1 C-3.375 -1.125 -3.375 -1.125 0 0 Z " fill="#349A98" transform="translate(122,110)"/>
<path d="M0 0 C-0.75 1.9375 -0.75 1.9375 -2 4 C-4.125 4.75 -4.125 4.75 -6 5 C-6.66 3.68 -7.32 2.36 -8 1 C-3.375 -1.125 -3.375 -1.125 0 0 Z " fill="#238488" transform="translate(100,100)"/>
<path d="M0 0 C0.515625 0.70125 1.03125 1.4025 1.5625 2.125 C4.41939716 5.49467357 7.58871997 8.21156604 11 11 C8.92446352 11.5534764 7.15634036 12 5 12 C4.731875 11.2575 4.46375 10.515 4.1875 9.75 C3.12651121 6.98725443 3.12651121 6.98725443 1.375 4.875 C0 3 0 3 0 0 Z " fill="#5D858D" transform="translate(62,84)"/>
<path d="M0 0 C0.66 0.66 1.32 1.32 2 2 C1.01 2.495 1.01 2.495 0 3 C-0.309375 3.66 -0.61875 4.32 -0.9375 5 C-2 7 -2 7 -5 8 C-5.66 7.34 -6.32 6.68 -7 6 C-6.67 5.01 -6.34 4.02 -6 3 C-5.67 3.33 -5.34 3.66 -5 4 C-4.54625 3.525625 -4.0925 3.05125 -3.625 2.5625 C-2 1 -2 1 0 0 Z " fill="#6DCAB8" transform="translate(119,35)"/>
<path d="M0 0 C3.66172475 0.62678171 6.8818995 1.64451846 10.3125 3.0625 C11.19550781 3.42472656 12.07851562 3.78695312 12.98828125 4.16015625 C13.65214844 4.43730469 14.31601563 4.71445313 15 5 C15 5.33 15 5.66 15 6 C8.84777564 5.56826496 5.18082051 4.34594658 0 1 C0 0.67 0 0.34 0 0 Z " fill="#234650" transform="translate(56,121)"/>
<path d="M0 0 C3.875 2.625 3.875 2.625 5 6 C4.67 6.66 4.34 7.32 4 8 C1.525 7.01 1.525 7.01 -1 6 C-0.67 4.02 -0.34 2.04 0 0 Z " fill="#0F5460" transform="translate(37,91)"/>
<path d="M0 0 C0.66 0 1.32 0 2 0 C2 2.31 2 4.62 2 7 C0.68 7.33 -0.64 7.66 -2 8 C-2.125 5.125 -2.125 5.125 -2 2 C-1.34 1.34 -0.68 0.68 0 0 Z " fill="#358282" transform="translate(62,58)"/>
<path d="M0 0 C2.475 0.99 2.475 0.99 5 2 C5 2.99 5 3.98 5 5 C2.92446352 5.5534764 1.15634036 6 -1 6 C-0.67 4.02 -0.34 2.04 0 0 Z " fill="#2F9595" transform="translate(61,53)"/>
<path d="M0 0 C1.98 0.66 3.96 1.32 6 2 C5.01 2.33 4.02 2.66 3 3 C3 3.66 3 4.32 3 5 C1.02 5.33 -0.96 5.66 -3 6 C-2.42655063 3.13275314 -2.1385485 2.1385485 0 0 Z " fill="#356F78" transform="translate(68,116)"/>
<path d="M0 0 C4.875 4.75 4.875 4.75 6 7 C3.625 7.125 3.625 7.125 1 7 C0.34 6.34 -0.32 5.68 -1 5 C-0.625 2.375 -0.625 2.375 0 0 Z " fill="#3C5D69" transform="translate(45,97)"/>
<path d="M0 0 C6.625 0.75 6.625 0.75 10 3 C5.545 3.495 5.545 3.495 1 4 C0.67 2.68 0.34 1.36 0 0 Z " fill="#43787E" transform="translate(70,96)"/>
<path d="M0 0 C0.66 0.33 1.32 0.66 2 1 C2 1.99 2 2.98 2 4 C2.99 3.67 3.98 3.34 5 3 C4.67 4.98 4.34 6.96 4 9 C1.4375 6.75 1.4375 6.75 -1 4 C-0.8125 1.6875 -0.8125 1.6875 0 0 Z " fill="#439295" transform="translate(58,62)"/>
<path d="M0 0 C0.99 0 1.98 0 3 0 C2.67 1.98 2.34 3.96 2 6 C0.68 6 -0.64 6 -2 6 C-1.125 1.125 -1.125 1.125 0 0 Z " fill="#388382" transform="translate(58,53)"/>
<path d="M0 0 C0.33 0.66 0.66 1.32 1 2 C3.02463255 2.65213292 3.02463255 2.65213292 5 3 C5 3.66 5 4.32 5 5 C5.66 5 6.32 5 7 5 C6.67 5.99 6.34 6.98 6 8 C5.01 8 4.02 8 3 8 C2.67 6.35 2.34 4.7 2 3 C1.34 3 0.68 3 0 3 C0 2.01 0 1.02 0 0 Z " fill="#2E7B83" transform="translate(33,55)"/>
<path d="M0 0 C0.66 0.33 1.32 0.66 2 1 C0.63016497 4.16115776 0.0109362 4.9927092 -3 7 C-4.32 7 -5.64 7 -7 7 C-7 6.34 -7 5.68 -7 5 C-5.35666496 3.96210419 -3.68756133 2.96432076 -2 2 C-1.34 1.34 -0.68 0.68 0 0 Z " fill="#419691" transform="translate(48,36)"/>
<path d="M0 0 C-0.33 1.65 -0.66 3.3 -1 5 C-2.65 4.67 -4.3 4.34 -6 4 C-6 3.01 -6 2.02 -6 1 C-4 0 -4 0 0 0 Z " fill="#3DA7A4" transform="translate(60,32)"/>
<path d="M0 0 C0.33 0 0.66 0 1 0 C0.88590407 1.45922693 0.75834456 2.91740598 0.625 4.375 C0.55539063 5.18710938 0.48578125 5.99921875 0.4140625 6.8359375 C0 9 0 9 -2 11 C-2.25 3.375 -2.25 3.375 0 0 Z " fill="#66B1A8" transform="translate(136,87)"/>
<path d="M0 0 C-1.5830577 4.2742558 -4.50568404 6.26531794 -8 9 C-8.66 8.67 -9.32 8.34 -10 8 C-8.71451591 6.66070495 -7.42141845 5.32871357 -6.125 4 C-5.04605469 2.88625 -5.04605469 2.88625 -3.9453125 1.75 C-2 0 -2 0 0 0 Z " fill="#4B8582" transform="translate(52,32)"/>
<path d="M0 0 C0.66 0.33 1.32 0.66 2 1 C0.6581656 5.02550319 -1.4227573 5.88285636 -5 8 C-5.66 8 -6.32 8 -7 8 C-7 7.34 -7 6.68 -7 6 C-5.01310269 4.64721885 -3.01254782 3.31431695 -1 2 C-0.67 1.34 -0.34 0.68 0 0 Z " fill="#367676" transform="translate(116,116)"/>
<path d="M0 0 C1.52453435 2.94017338 2.95157395 5.85472185 4 9 C3.67 9.99 3.34 10.98 3 12 C0.01485372 7.89542386 -0.2954439 5.02254631 0 0 Z " fill="#1D404B" transform="translate(32,86)"/>
<path d="M0 0 C0.99 0.66 1.98 1.32 3 2 C2.34 3.32 1.68 4.64 1 6 C-0.32 4.68 -1.64 3.36 -3 2 C-2.01 1.34 -1.02 0.68 0 0 Z " fill="#6DC2B4" transform="translate(158,57)"/>
<path d="M0 0 C1.32 0.33 2.64 0.66 4 1 C3.42655063 3.86724686 3.1385485 4.8614515 1 7 C0.67 4.69 0.34 2.38 0 0 Z " fill="#157076" transform="translate(55,82)"/>
<path d="M0 0 C0.99 0.33 1.98 0.66 3 1 C3 2.98 3 4.96 3 7 C2.01 7.495 2.01 7.495 1 8 C1 7.01 1 6.02 1 5 C0.34 4.67 -0.32 4.34 -1 4 C-0.67 2.68 -0.34 1.36 0 0 Z " fill="#208086" transform="translate(36,53)"/>
<path d="M0 0 C3.3 0.33 6.6 0.66 10 1 C10 1.33 10 1.66 10 2 C2.25 3.125 2.25 3.125 0 2 C0 1.34 0 0.68 0 0 Z " fill="#6CAAA7" transform="translate(74,50)"/>
<path d="M0 0 C0.99 0 1.98 0 3 0 C2.67 0.66 2.34 1.32 2 2 C3.32 2 4.64 2 6 2 C5.67 2.99 5.34 3.98 5 5 C2.03 4.505 2.03 4.505 -1 4 C-0.67 2.68 -0.34 1.36 0 0 Z " fill="#74CDC0" transform="translate(119,46)"/>
<path d="" fill="#FFFFFF" transform="translate(0,0)"/>
<path d="" fill="#FFFFFF" transform="translate(0,0)"/>
<path d="" fill="#FFFFFF" transform="translate(0,0)"/>
<path d="" fill="#FFFFFF" transform="translate(0,0)"/>
<path d="" fill="#FFFFFF" transform="translate(0,0)"/>
<path d="" fill="#FFFFFF" transform="translate(0,0)"/>
<path d="" fill="#FFFFFF" transform="translate(0,0)"/>
<path d="" fill="#FFFFFF" transform="translate(0,0)"/>
<path d="" fill="#FFFFFF" transform="translate(0,0)"/>
<path d="" fill="#FFFFFF" transform="translate(0,0)"/>
<path d="" fill="#FFFFFF" transform="translate(0,0)"/>
<path d="" fill="#FFFFFF" transform="translate(0,0)"/>
<path d="" fill="#FFFFFF" transform="translate(0,0)"/>
<path d="" fill="#FFFFFF" transform="translate(0,0)"/>
<path d="" fill="#FFFFFF" transform="translate(0,0)"/>
<path d="" fill="#FFFFFF" transform="translate(0,0)"/>
<path d="" fill="#FFFFFF" transform="translate(0,0)"/>
<path d="" fill="#FFFFFF" transform="translate(0,0)"/>
<path d="" fill="#FFFFFF" transform="translate(0,0)"/>
</svg>
